<svg id="Layer_1" data-name="Layer 1" xmlns="http://www.w3.org/2000/svg" viewBox="0 0 637.25 761.4">
  <defs>
    <style>
      .cls-1 {
        fill: none;
        stroke: #000;
        stroke-miterlimit: 10;
      }
    </style>
  </defs>
  <title>italy</title>
  <g>
    <path class="cls-1" d="M742,707.39a33.73,33.73,0,0,1,5.6,11.6c1.5,5.7-2.2,9.4-8,8.1-10-2.1-23.2,4.1-26.9,13.4-1.6,4,0,8.4.8,12.6,1.2,7-.4,10.8-5.8,15-8.8,6.9-16.6,14.6-18.8,26.4-.9,4.7-4.9,6.6-9.3,6.8a93.57,93.57,0,0,1-11.8-.8c-9.7-1-11.9-4.6-11-14.2.5-5.8,3.3-9,7.8-11.6a10.83,10.83,0,0,0,5-9.7c-.2-4.1.5-8.5-1.8-12.6-2.1-3.8-.6-7.5,3.5-9.5,2.7-1.3,5.6-2.1,8.3-3.2,7.2-2.7,9.6-8.3,6.7-15.7-2.9-7.6-6-15.1-8.7-22.8-1.3-3.7-.8-7.9-2.6-11.5-1.1-2.4-1.7-5.9-3.6-7-8.2-4.8-7.5-13.1-8.6-20.4-1.3-9.1-5.9-12.8-14.5-9.4-7,2.8-12,1.2-16.7-4.3-3.2-3.7-6.2-7.8-11.8-8.6-2.4-.4-3-2.9-2.7-5.3,1-8.1-1-15.4-4.8-22.5-2.8-5.3-3.4-7.5-9.5-7.1-2.93.23-10.64,3.68-11.59,1.94-3.27-1.94-5.73,2.9-7.91,2.16-2.9-1,.1-3.9,1.8-6.2,3.1-4.3,3.8-5.7-3.2-9.9-8.5-7.6-11.5.4-16.1-1.2-2.9-1-2.1-1.2-2.8-4.4-1.3-6-5.3-10.6-8.1-15.9-2.6-5-7.9-6.9-13.4-7a18.89,18.89,0,0,1-8.1-1.9c-6-2.9-12.1-5.3-19.1-3.3-4.7,1.4-7.7-2.3-10.7-5.1-3.3-3.1-6.8-5.7-11.3-7-6.1-1.7-9.8-6.8-13.6-11.3-1.7-2-3-4.3-5.1-5.9-7.4-5.5-10.1-15.1-17.7-20.6-1.5-1.1-2.4-3-4-3.7-8.1-3.5-12.7-10.7-17.1-17.5s-11.3-8.7-17.8-11.6c-1.4-.6-2.9.1-4.4.5-2.7.6-5-.9-6.6-2.7s-1.3-4.2,0-6c1.8-2.6,1-4.7-.5-6.9a112.75,112.75,0,0,0-12.2-13.6c-2.7-2.7-6.6-4.5-7.6-8.9a4.55,4.55,0,0,0-4.9-3.5c-3.5.5-4.1-2-4-4.3.1-4.4-.7-8.8-.7-13.3-.1-7.6-2.5-14.5-8.8-19.6a12.62,12.62,0,0,1-4.8-12.9c1.1-5.4.3-9.9-3.2-14.2a80.22,80.22,0,0,1-6.1-9.1c-2.3-3.7-5.3-5.8-9.8-5.8-6.1,0-9.1-5.1-12.9-8.5-5.5-4.7-11.2-8.6-18.3-10.6-4.3-1.2-6.4-5.8-10.8-7.4s-8.1-2.9-12.8-1.3c-6.4,2.2-12.4,4.6-16.9,9.9a19.84,19.84,0,0,1-7.2,5.3c-2.8,1.2-4.2,3.7-5.3,6.3-2.8,6.8-7.5,11-15.3,11.4A17,17,0,0,0,232,367c-2.5,2.7-5.7,5.7-9.8,2.8-4.7-3.4-5.1-7.9-1.8-13.1.9-1.4,1.4-3.2,2.5-4.3,2.3-2.2,2.7-4.3,1.4-7.2-1.6-3.3-4.2-1.4-6.5-1.6-5.7-.5-12.6.7-16.4-3.9-6.2-7.6-13-15-16.4-24.5a6.19,6.19,0,0,1,.4-5.6c2.6-4.6,2.6-10.3,7.1-14.1,1.1-1,.9-2.5-.3-3.6-3-2.8-4.6-7-8.6-9a5.83,5.83,0,0,1-3-5.4c.1-2.6.1-5.2.1-7.8,0-3.2,3.1-5,5.9-6,7.3-2.5,12.7-6.6,15.8-13.9,1.5-3.4,1.4-5.7-1.2-7.8-8.2-6.5-8.8-16.3-10.9-25.3-1.1-4.6,2.6-8.8,8.1-8,9.5,1.5,18.6-1.5,28.1-.7a74.24,74.24,0,0,0,18.2-.7c3.2-.5,5.2-3.3,7.2-5.6,4.6-5,7.1-11.1,9.2-17.5,2.3-7.3,9.2-9.1,15.1-11.6,3.5-1.5,6.4,2.3,5.7,7-.6,4.5.9,8.8,1.4,13.1.3,2.3,1.4,5,5,3.8a1.73,1.73,0,0,1,2.2,1.5c1.5,6.1,8.2,8.6,9.9,14.6.4,1.5,1.7,1.5,2.6.2a4.4,4.4,0,0,0,1.2-2.6c-1.2-10.9,7.1-17.5,11.3-26,1.6-3.1,3.1-6.2,3.2-9.8.1-5.1,4.4-4.6,7.6-5.4s4.2,1.8,4.8,4.3a27.34,27.34,0,0,1,1,4.8,7.16,7.16,0,0,0,10.5,6c6.2-3.2,8.1-2.8,12.1,2.5.8,1.1,1.3,3.4,3,2.6,1.5-.7,1.9-2.9,1-4.5-2.1-3.8-1.3-8.1-2.3-12.2s7.5-9.8,12.3-8.6c5.9,1.4,6.5.9,7.3-5.3a41.66,41.66,0,0,0,.8-4.9c0-4.7,2.3-5.6,6.6-5.8,5.6-.2,10.8-.6,16.2,2.3,4.1,2.2,8.6-.7,12.1-2.9s7-3.7,10.4-5.8c5.4-3.4,11.3-4.1,17.6-2.8a12,12,0,0,0,10.7-2.4c3.9-3.2,9.3-3.1,14-4.1,2.8-.6,4.1,1.7,3.5,4.1-2.3,9.2,5.7,13.1,9.7,18.8,4.2,5.9,10.7,9.4,18.5,10.2,7.2.8,14.2,3.1,21.4,4.5,6.3,1.3,12.7,2.3,19.1,3.3,3.3.5,6.8.5,8.3,4.3,1.5,4-1.4,6.5-3.4,9.2a8.88,8.88,0,0,1-2.4,1.8c-6.8,4.8-6.8,4.9-1.9,11,1.7,2.1,3.6,4.3,2.7,7.1-1.5,4.5.3,7.9,2.9,11.3,1.7,2.2,2.9,4.4,1.5,7.3-.8,1.7.2,3.2,1.6,4.4,3.2,2.8,6.4,5.8,9.8,8.4,4.7,3.6,1.7,8,1.2,11.8-.4,3.1-3.7,2.8-6.5,3s-3.9-1.1-4.4-3.5a19.59,19.59,0,0,0-2.5-7c-2.9-4.1-5.4-4.5-9-1-3,2.9-6.1,2.4-9.1.4-3.8-2.4-6.1-2.4-10.2.9-4.9,3.9-9.7,7.4-14,12.2-3.1,3.5-9.1,4.4-14.2,5.2-4,.7-3.8-2.8-4.7-5.4A13,13,0,0,0,477,259a16.36,16.36,0,0,1-3.9,6.1c-3.4,7.2,1.7,12.2,5,17.3,2.7,4.1,5,7.8,4.7,13.1-.3,4.3-1.4,6.7-5.7,7.9-4.1,1.2-3.5,5.2-2.6,8.1,2.9,9.6,3.3,19.5,4.8,29.3.6,3.9,3.6,6,6.2,8.1a36.33,36.33,0,0,1,9.1,10.4,18.38,18.38,0,0,0,7.8,7.3c4.9,2.6,7.7,7.8,11.1,11.8,7.1,8.5,16.7,12.7,26.1,17.3a13.84,13.84,0,0,1,7,7.1c6.8,15.1,12.2,30.8,18.3,46.2a60,60,0,0,0,16.4,23.1,194.16,194.16,0,0,1,21.4,22.1c7.3,8.8,17.4,12.9,27.7,16.6a8.21,8.21,0,0,0,4.9.1c11.7-4,23.7.7,35.5-1.8,5.1-1.1,12.8,4.5,14.7,9.2,1,2.6.2,4.7-2.1,6.5-3.6,2.7-7.7,4.5-11,7.7-2.8,2.6-3.1,4.9,0,7.4,6.8,5.7,14.6,9.4,22.8,12.8,10.3,4.2,20.7,8.1,30.5,13.4a4.26,4.26,0,0,0,2.3.8c7.9-1.1,13,3.9,17.7,8.6a65.19,65.19,0,0,0,33.9,18.4,11.9,11.9,0,0,1,7.2,4.1c7.8,10.3,17.8,18.7,25.1,29.4,3.9,5.8,6.9,11.9,3.4,19.4-1.6,3.5-1,7.8-2.5,11.6-1.6,4.1-4.6,4.9-7.9,2.7-4-2.6-8.3-4.8-12.5-7.1a16.19,16.19,0,0,1-8.1-9.1c-1.9-5.2-6.3-8.9-9.1-13.6-.9-1.4-3-2-4.9-2.3-11.5-1.7-22.1-5.6-31.3-12.9-3.7-2.9-10-.9-13.4,4.9-5,8.6-10.3,17.2-13.5,26.5a58,58,0,0,0-3.2,20.5c.1,3.5,1.4,6.2,5.7,6a3.87,3.87,0,0,1,2.4.5c6,5.1,14,6.6,20.4,11.1a10.66,10.66,0,0,1,4.6,11.2A20,20,0,0,0,742,707.39Z" transform="translate(-180.05 -131.59)"/>
    <path class="cls-1" d="M626.46,892.49a9.42,9.42,0,0,1-6.1-2.1c-1.8-1.3-3.7-2.4-6-2-11.1,1.8-17.9-3.8-24.8-11.8-5.6-6.4-12.1-12.5-22.2-13.5-8.7-.9-18.3-1.9-24.3-10.4-1.1-1.5-3.4-1.9-5.4-2.4-5.5-1.3-9.8-4.5-13.4-8.8-3.2-3.9-7.4-6.4-12-8.6-9.2-4.4-19.1-6.1-28.8-8.5-8.3-2.1-12.1-10.6-8.1-18.4,2.2-4.3.7-9.5,4.2-13.6,1.9-2.2,3.7-4.2,6.3-5.4a8.83,8.83,0,0,0,3.8-2.9c3-4.1,8.2-3.4,9.5,1.5,1.5,5.5,4.2,5.4,8.6,4,2.4-.8,3.1-2,3.1-4.3,0-4,1.7-6.2,6.1-5.9,1.6.1,3.2-.6,4.9-.7,2-.2,4.6-.9,5.5,1.2,2.9,6.7,10.3,6.6,14.9,10.8,7.6,6.9,16.7,4.1,25.1,2.4,10.2-2.1,20.2-5,30.5-6.4,4.2-.6,7.2-3.3,10.9-4.7a16.62,16.62,0,0,1,9.6-.8c4.4.8,9.2,1.6,11.3-4.6a3.81,3.81,0,0,1,5.9-1.7c3.6,2.6,6.7,1.4,10.3.1,2.9-1.1,6.6-3.7,9.1-.9s.2,6.3-1.1,9.4a180.63,180.63,0,0,1-15.1,28.5c-2.4,3.7-4.9,7.4-3.4,12.5.5,1.8-.9,3.7-2,5.4-4.1,6.7-3.7,10.2,1.9,15.7,2.4,2.4,3.9,4.9,3.5,8.4a2.55,2.55,0,0,0,0,1.5c4.6,7.3-.6,12.5-4.1,17.9-2.3,3.6-1.5,7.8-3,11.4C630.46,887.29,631.46,891.89,626.46,892.49Z" transform="translate(-180.05 -131.59)"/>
    <path class="cls-1" d="M246.86,698.49a3.55,3.55,0,0,1-1.2,2.6c-3.7,2.5-3.9,5.8-1.4,8.9,3.2,4,4.7-.8,7.3-2.7.8,5.9,5.4,8.1,8.4,11.7s6.3,4,10.3,3.1a16.08,16.08,0,0,0,12.7-15c.4-6.8,2.9-9,11.4-10.3,5-.8,6.6,2.2,7.5,6.4.8,3.8,4.2,3,6.9,3.2,2.4.2,2.6-1.3,3.4-3.1,2.5-5.7,3.6-12,6.9-17.4a11.24,11.24,0,0,0,1.8-5.6c.2-10.3,2.5-20.3,4.7-30.3,1-4.6,1.6-9.8-.2-14.3-1.7-4.2-1-7.1,1.4-10.5,5.3-7.4,6.6-15.5,3.2-24.2a129.39,129.39,0,0,1-5.4-15.9c-.8-3.3-2.7-6.6-2.2-10,1.2-9-1.5-13.8-10.2-16.7-1.8-.8.9-4-2.3-4.1-4.2-2.7-8.8-5.2-12.7-.2-2.3,2.9-5.5,4.2-8,6.5-4.5,4.2-10.3,6.5-14.7,10.9a42.62,42.62,0,0,1-10.6,7.3c-5.2,2.6-11.3.1-16.4-6.5-1-1.3-1.6-3.1-3.7-2.7-2.3.4-2.5,2.4-2.8,4.2-.9,5.8-1.3,11.6-3.8,17.2-1.7,3.7-.6,7.2,4.1,8.4,5.2,1.3,6.7,5.2,7.2,10.1a33.54,33.54,0,0,0,4.2,12.6,28.68,28.68,0,0,1,3,11c.3,2.8-3.1,4-4.9,5.8-3.6,3.6-2.3,12.7,2.2,15.2,1.8,1,3,2.7,1.7,3.9-4.4,4-4.5,9.8-6.8,14.6C243.66,681.09,247.56,691.89,246.86,698.49Z" transform="translate(-180.05 -131.59)"/>
    <path class="cls-1" d="M369.86,442.09c.1,6.1-2.1,8-7.8,7.4-3.1-.3-6.3-.3-9.4-.4-2.6-.1-4.6-.9-4.8-3.8s2.2-4.4,4.3-4.6c5.1-.5,10.2-.1,15.2-1.5C370.06,438.39,369.66,440.79,369.86,442.09Z" transform="translate(-180.05 -131.59)"/>
    <path class="cls-1" d="M238,694.59c1.7,1.2,4.2,1.7,3.7,4.2-.4,2-1.9,4.2-4.1,4.4s-2.5-2.2-2.7-4C234.66,696.79,236,695.49,238,694.59Z" transform="translate(-180.05 -131.59)"/>
    <path class="cls-1" d="M556.06,603.29c-2.2-1.1-4.2-2.3-4-4.8a3.22,3.22,0,0,1,3.4-2.9c2.9.1,3.8,2.5,3.9,4.8S557.16,602.29,556.06,603.29Z" transform="translate(-180.05 -131.59)"/>
    <path class="cls-1" d="M246.06,566.29c-1.7.1-3.1-.6-2.8-1.8.8-2.9,3.3-4.4,6.2-5,1.3-.2,2.4.4,2.3,1.9C251.56,565.19,247.86,564.69,246.06,566.29Z" transform="translate(-180.05 -131.59)"/>
    <path class="cls-1" d="M577.36,612.09c-.1.5,0,.8-1.4,1-1.2.1-4.7,2.8-4.4-.6.1-1.8.9-1.5,2-1.5.7.1,2,1,2.6.5C576.66,611.19,577.76,610.89,577.36,612.09Z" transform="translate(-180.05 -131.59)"/>
    <path class="cls-1" d="M312,558.39c-1.8-.7-.5-3.3-2.3-4.1,1-3.7,2.9-3.3,5.4-1.4.9.7,2,1.3,1.5,2.7-.5,1.6-1.6,1.3-2.8.8C311.46,555.39,312,557.09,312,558.39Z" transform="translate(-180.05 -131.59)"/>
    <path class="cls-1" d="M410.56,484.09c-2.6,1.8-2.9,5.3-6.1,4.2-1.3-.5-1.5-2.4-.6-3.9C405.86,480.59,407.66,484.49,410.56,484.09Z" transform="translate(-180.05 -131.59)"/>
    <path class="cls-1" d="M455.86,796.49c-.2,1.3-.5,2.7-2,2.5-2-.2-2.5-2.1-2.8-3.7s.9-2,2.2-1.8C455.06,793.69,455.76,794.89,455.86,796.49Z" transform="translate(-180.05 -131.59)"/>
    <path class="cls-1" d="M395.66,475.49c-.6.9-.6,3.1-2.3,2.2-.9-.5-3.5,0-2.9-2.4a2.87,2.87,0,0,1,2.8-2.3C394.76,473,395.86,473.69,395.66,475.49Z" transform="translate(-180.05 -131.59)"/>
    <path class="cls-1" d="M471.76,795.39c0,1.4-.8,2-2.2,2-.9-.1-1.6-.6-1.6-1.5a2.08,2.08,0,0,1,2-2.3C471.26,793.49,471.76,794.29,471.76,795.39Z" transform="translate(-180.05 -131.59)"/>
    <path class="cls-1" d="M476.86,264.39c.4-1.3.7-2.6,1.1-4,1.2.2,3.1-.7,3.4.8.3,2-1.4,3-3.4,3.2C477.56,264.79,477.16,264.79,476.86,264.39Z" transform="translate(-180.05 -131.59)"/>
    <path class="cls-1" d="M634.56,737.79c-.6,1.1-.6,2.8-2.2,3-.8.1-1.4-.8-1.4-1.7a2.56,2.56,0,0,1,2-2.5C633.86,736.29,634.56,736.69,634.56,737.79Z" transform="translate(-180.05 -131.59)"/>
    <path class="cls-1" d="M611,755.79a1.59,1.59,0,0,1-1.9-1.8c-.1-1,.6-1.5,1.5-1.5s2,.1,2.1,1.4S611.66,755.39,611,755.79Z" transform="translate(-180.05 -131.59)"/>
    <path class="cls-1" d="M340.26,425.39c-.3,1-.7,1.9-1.9,1.9-.9,0-1.4-.7-1.3-1.7s.8-1.9,1.9-1.8C339.86,423.69,340.36,424.29,340.26,425.39Z" transform="translate(-180.05 -131.59)"/>
    <path class="cls-1" d="M742,707.39a11,11,0,0,1-.1-10C741.86,700.69,742,704.09,742,707.39Z" transform="translate(-180.05 -131.59)"/>
    <path class="cls-1" d="M476.86,264.39H478c-1.5,1.3.1,4.6-3,5C474.76,267.39,474.56,265.39,476.86,264.39Z" transform="translate(-180.05 -131.59)"/>
    <path class="cls-1" d="M574.66,610.59" transform="translate(-180.05 -131.59)"/>
  </g>
</svg>
